<svg id="visual" viewBox="0 0 900 600" width="900" height="600" xmlns="http://www.w3.org/2000/svg" xmlns:xlink="http://www.w3.org/1999/xlink" version="1.1"><rect x="0" y="0" width="900" height="600" fill="#001220"></rect><path d="M0 439L21.5 438.7C43 438.3 86 437.7 128.8 428C171.7 418.3 214.3 399.7 257.2 397.3C300 395 343 409 385.8 419.8C428.7 430.7 471.3 438.3 514.2 427.8C557 417.3 600 388.7 642.8 387.7C685.7 386.7 728.3 413.3 771.2 428C814 442.7 857 445.3 878.5 446.7L900 448L900 601L878.5 601C857 601 814 601 771.2 601C728.3 601 685.7 601 642.8 601C600 601 557 601 514.2 601C471.3 601 428.7 601 385.8 601C343 601 300 601 257.2 601C214.3 601 171.7 601 128.8 601C86 601 43 601 21.5 601L0 601Z" fill="#fa7268"></path><path d="M0 469L21.5 460C43 451 86 433 128.8 424.8C171.7 416.7 214.3 418.3 257.2 419.2C300 420 343 420 385.8 424.2C428.7 428.3 471.3 436.7 514.2 446C557 455.3 600 465.7 642.8 468.8C685.7 472 728.3 468 771.2 464.8C814 461.7 857 459.3 878.5 458.2L900 457L900 601L878.5 601C857 601 814 601 771.2 601C728.3 601 685.7 601 642.8 601C600 601 557 601 514.2 601C471.3 601 428.7 601 385.8 601C343 601 300 601 257.2 601C214.3 601 171.7 601 128.8 601C86 601 43 601 21.5 601L0 601Z" fill="#dc4267"></path><path d="M0 450L21.5 457.2C43 464.3 86 478.7 128.8 480.3C171.7 482 214.3 471 257.2 468.8C300 466.7 343 473.3 385.8 476.8C428.7 480.3 471.3 480.7 514.2 473.8C557 467 600 453 642.8 446.8C685.7 440.7 728.3 442.3 771.2 450.3C814 458.3 857 472.7 878.5 479.8L900 487L900 601L878.5 601C857 601 814 601 771.2 601C728.3 601 685.7 601 642.8 601C600 601 557 601 514.2 601C471.3 601 428.7 601 385.8 601C343 601 300 601 257.2 601C214.3 601 171.7 601 128.8 601C86 601 43 601 21.5 601L0 601Z" fill="#c62368"></path><path d="M0 485L21.5 488.8C43 492.7 86 500.3 128.8 508.3C171.7 516.3 214.3 524.7 257.2 522.3C300 520 343 507 385.8 507C428.7 507 471.3 520 514.2 522.2C557 524.3 600 515.7 642.8 513.3C685.7 511 728.3 515 771.2 515.8C814 516.7 857 514.3 878.5 513.2L900 512L900 601L878.5 601C857 601 814 601 771.2 601C728.3 601 685.7 601 642.8 601C600 601 557 601 514.2 601C471.3 601 428.7 601 385.8 601C343 601 300 601 257.2 601C214.3 601 171.7 601 128.8 601C86 601 43 601 21.5 601L0 601Z" fill="#dc4267"></path><path d="M0 567L21.5 562.7C43 558.3 86 549.7 128.8 544.5C171.7 539.3 214.3 537.7 257.2 535.2C300 532.7 343 529.3 385.8 530.2C428.7 531 471.3 536 514.2 539.7C557 543.3 600 545.7 642.8 550.8C685.7 556 728.3 564 771.2 567.7C814 571.3 857 570.7 878.5 570.3L900 570L900 601L878.5 601C857 601 814 601 771.2 601C728.3 601 685.7 601 642.8 601C600 601 557 601 514.2 601C471.3 601 428.7 601 385.8 601C343 601 300 601 257.2 601C214.3 601 171.7 601 128.8 601C86 601 43 601 21.5 601L0 601Z" fill="#fa7268"></path></svg>